# xmcd CD database file
#
# Track frame offsets:
#	150
#	21556
#	52463
#	76302
#	112552
#	151779
#	177444
#	209027
#	231720
#	263509
#
# Disc length: 4069 seconds
#
# Revision: 0
# Processed by: cddbd v1.5.2PL0 Copyright (c) Steve Scherf et al.
# Submitted via: CDex 1.51
#
DISCID=890fe30a
DTITLE=Big Band RTS and Jazzart - Afro-Balkanske skice
DYEAR=1998
DGENRE=Jazz
TTITLE0=One for Les
TTITLE1=Ne si go prodavaj
TTITLE2=The Nearness of you
TTITLE3=Nishville
TTITLE4=Prebranac
TTITLE5=Small Fry
TTITLE6=Vesela pesma sa donjeg Dorcola
TTITLE7=Born to be blue
TTITLE8=No booze blooze
TTITLE9=Cvece cafnalo
EXTD=YEAR: 1998
EXTT0=
EXTT1=
EXTT2=
EXTT3=
EXTT4=
EXTT5=
EXTT6=
EXTT7=
EXTT8=
EXTT9=
PLAYORDER=
